<svg xmlns="http://www.w3.org/2000/svg" width="14" height="14" viewBox="0 0 24 24">
  <path fill="#2b8f89" d="M19 3A2 2 0 0 1 21 5v14a2 2 0 0 1-2 2H5a2 2 0 0 1-2-2V5a2 2 0 0 1 2-2h14ZM8.34 18.34V10.9H5.87v7.44h2.47ZM7.1 9.88c.86 0 1.56-.7 1.56-1.56 0-.86-.7-1.56-1.56-1.56-.86 0-1.56.7-1.56 1.56 0 .86.7 1.56 1.56 1.56Zm11.24 8.46v-4.07c0-2.18-1.16-3.19-2.71-3.19-1.25 0-1.81.69-2.12 1.17v-1h-2.47c.03.66 0 7.09 0 7.09h2.47v-3.96c0-.21.02-.42.08-.57.17-.42.55-.86 1.2-.86.85 0 1.18.65 1.18 1.61v3.78h2.37Z"/>
</svg>
