<svg xmlns="http://www.w3.org/2000/svg" width="14" height="14" viewBox="0 0 24 24">
  <path fill="#2b8f89" d="M12 2a10 10 0 1 0 10 10A10 10 0 0 0 12 2Zm6.93 9h-3.07a15.62 15.62 0 0 0-1.29-5.01A8.02 8.02 0 0 1 18.93 11Zm-6.93-7a13.56 13.56 0 0 1 1.86 7H10.14A13.56 13.56 0 0 1 12 4ZM5.07 13h3.07a15.62 15.62 0 0 0 1.29 5.01A8.02 8.02 0 0 1 5.07 13Zm3.07-2H5.07a8.02 8.02 0 0 1 4.36-5.01A15.62 15.62 0 0 0 8.14 11Zm3.86 9a13.56 13.56 0 0 1-1.86-7h3.72A13.56 13.56 0 0 1 12 20Zm2.57-1.99A15.62 15.62 0 0 0 15.86 13h3.07a8.02 8.02 0 0 1-4.36 5.01Z"/>
</svg>
